<svg width="300" height="185" viewBox="0 0 300 185" fill="none" xmlns="http://www.w3.org/2000/svg">
<mask id="mask0_210_88" style="mask-type:alpha" maskUnits="userSpaceOnUse" x="0" y="0" width="300" height="185">
<rect width="300" height="185" fill="#5C715E"/>
</mask>
<g mask="url(#mask0_210_88)">
<path fill-rule="evenodd" clip-rule="evenodd" d="M117.336 -152.564C176.693 -165.512 239.329 -154.208 292.09 -121.195C342.958 -89.3662 373.356 -31.9427 401.372 25.1619C429.69 82.8803 464.734 143.928 453.901 208.619C443.212 272.452 384.031 306.463 346.033 355.623C305.05 408.646 285.169 499.85 222.828 507.574C159.784 515.386 121.438 431.349 70.0532 389.821C29.987 357.44 -12.6925 333.424 -44.7242 291.342C-84.8775 238.592 -140.018 186.368 -137.466 117.195C-134.885 47.2657 -77.5953 -2.32343 -32.1116 -50.4771C11.33 -96.4688 58.584 -139.748 117.336 -152.564Z" fill="#DDEEDF"/>
<path fill-rule="evenodd" clip-rule="evenodd" d="M-282.742 349.827C-281.471 277.299 -280.627 197.348 -236.777 143.825C-192.942 90.3186 -120.588 89.9984 -57.152 74.4722C7.29578 58.6986 73.0133 27.4928 134.963 52.8409C198.829 78.973 254.586 138.149 275.291 210.499C294.72 278.391 257.595 346.98 238.616 415.03C223.578 468.949 203.6 517.379 176.418 565.001C142.924 623.685 121.409 701.75 62.3288 723.894C2.30712 746.391 -62.0274 708.789 -117.772 675.269C-170.37 643.641 -214.291 597.917 -243.719 539.863C-273.107 481.887 -283.909 416.434 -282.742 349.827Z" fill="#5C715E"/>
<path fill-rule="evenodd" clip-rule="evenodd" d="M191.12 529.327C158.053 487.783 170.773 424.54 164.484 369.404C159.18 322.895 150.2 278.648 157.257 232.431C165.946 175.516 166.004 104.931 209.602 73.8949C253.201 42.8574 310.063 74.6556 360.408 87.8112C402.084 98.7014 440.363 115.854 475.376 143.344C513.18 173.025 548.842 205.684 569.403 251.9C593.773 306.68 615.069 367.932 601.681 427.244C587.541 489.884 547.769 545.586 496.403 575.302C447.05 603.853 388.936 590.481 333.853 582.186C282.931 574.517 225.256 572.213 191.12 529.327Z" fill="#B6CDBD"/>
</g>
</svg>
