<svg width="566" height="566" viewBox="0 0 566 566" fill="none" xmlns="http://www.w3.org/2000/svg">
<mask id="mask0_1_110" style="mask-type:alpha" maskUnits="userSpaceOnUse" x="0" y="0" width="566" height="566">
<path fill-rule="evenodd" clip-rule="evenodd" d="M565 283C565 438.744 438.744 565 283 565C127.256 565 1 438.744 1 283C1 127.256 127.256 1 283 1C438.744 1 565 127.256 565 283ZM566 283C566 439.297 439.297 566 283 566C126.703 566 0 439.297 0 283C0 126.703 126.703 0 283 0C439.297 0 566 126.703 566 283ZM474.747 283C474.747 388.899 388.899 474.747 283 474.747C177.101 474.747 91.2529 388.899 91.2529 283C91.2529 177.101 177.101 91.2527 283 91.2527C388.899 91.2527 474.747 177.101 474.747 283ZM475.747 283C475.747 389.451 389.451 475.747 283 475.747C176.549 475.747 90.2529 389.451 90.2529 283C90.2529 176.549 176.549 90.2527 283 90.2527C389.451 90.2527 475.747 176.549 475.747 283ZM283.24 391.215C342.873 391.215 391.215 342.873 391.215 283.24C391.215 223.607 342.873 175.265 283.24 175.265C223.607 175.265 175.264 223.607 175.264 283.24C175.264 342.873 223.607 391.215 283.24 391.215ZM283.24 392.215C343.425 392.215 392.215 343.425 392.215 283.24C392.215 223.055 343.425 174.265 283.24 174.265C223.054 174.265 174.264 223.055 174.264 283.24C174.264 343.425 223.054 392.215 283.24 392.215ZM321.126 283C321.126 304.056 304.056 321.126 283 321.126C261.944 321.126 244.874 304.056 244.874 283C244.874 261.944 261.944 244.874 283 244.874C304.056 244.874 321.126 261.944 321.126 283ZM322.126 283C322.126 304.608 304.608 322.126 283 322.126C261.392 322.126 243.874 304.608 243.874 283C243.874 261.392 261.392 243.874 283 243.874C304.608 243.874 322.126 261.392 322.126 283Z" fill="black"/>
</mask>
<g mask="url(#mask0_1_110)">
<rect y="-52.7627" width="566" height="335.763" fill="#EBE4FF"/>
</g>
</svg>
